<svg id="Camada_1" data-name="Camada 1" xmlns="http://www.w3.org/2000/svg" viewBox="0 0 604 314"><defs><style>.cls-1{fill:#930003;}.cls-2{fill:#fbb03b;}</style></defs><path class="cls-1" d="M347,162.91H311.12v24.32h42.15v15H292.41V111.47h60.73v15.15h-42v21.64H347Z"/><path class="cls-1" d="M383,170.27v32H364.24V111.47h35.42a40.9,40.9,0,0,1,18,3.74,27.51,27.51,0,0,1,11.94,10.63,29.59,29.59,0,0,1,4.18,15.68q0,13.35-9.14,21t-25.28,7.7Zm0-15.16h16.71q7.43,0,11.32-3.49t3.89-10q0-6.68-3.92-10.79t-10.85-4.24H383Z"/><path class="cls-1" d="M486.77,183.55H454l-6.23,18.7H427.85l33.79-90.78H479l34,90.78H493.07ZM459,168.4h22.7l-11.41-34Z"/><path class="cls-2" d="M109.11,202.25H90.4V111.47h18.71Z"/><path class="cls-2" d="M190,111.47h-8.35v59.86l-36.48-59.86H126.44v90.78h18.71V142.52l36.41,59.73h18.71V128.91Z"/><path class="cls-1" d="M255.86,156.47l26.45-45H260.79l-17,31.31L214,89.89H192.44l39.21,66.58-39.89,67.42h21.77l30.23-53.45,17.47,31.81H283Z"/></svg>